<?xml version="1.0" encoding="UTF-8" standalone="no"?>
<!-- Created with Inkscape (http://www.inkscape.org/) -->

<svg
   version="1.1"
   id="svg2"
   width="666.66669"
   height="666.66669"
   viewBox="0 0 666.66669 666.66669"
   sodipodi:docname="logo_sem letras.svg"
   inkscape:version="1.2.2 (732a01da63, 2022-12-09)"
   xmlns:inkscape="http://www.inkscape.org/namespaces/inkscape"
   xmlns:sodipodi="http://sodipodi.sourceforge.net/DTD/sodipodi-0.dtd"
   xmlns="http://www.w3.org/2000/svg"
   xmlns:svg="http://www.w3.org/2000/svg">
  <defs
     id="defs6">
    <rect
       x="427.41434"
       y="550.77883"
       width="241.74455"
       height="73.520251"
       id="rect683" />
    <clipPath
       clipPathUnits="userSpaceOnUse"
       id="clipPath20">
      <path
         d="M 0,500 H 500 V 0 H 0 Z"
         id="path18" />
    </clipPath>
    <clipPath
       clipPathUnits="userSpaceOnUse"
       id="clipPath40">
      <path
         d="m 282.749,347.927 h 24.492 v -47.689 h -24.492 z"
         id="path38" />
    </clipPath>
    <clipPath
       clipPathUnits="userSpaceOnUse"
       id="clipPath60">
      <path
         d="m 304.63,266.131 h 56.735 V 235.568 H 304.63 Z"
         id="path58" />
    </clipPath>
    <clipPath
       clipPathUnits="userSpaceOnUse"
       id="clipPath76">
      <path
         d="m 309.259,292.557 h 32.098 v -18.659 h -32.098 z"
         id="path74" />
    </clipPath>
  </defs>
  <sodipodi:namedview
     id="namedview4"
     pagecolor="#505050"
     bordercolor="#ffffff"
     borderopacity="1"
     inkscape:showpageshadow="0"
     inkscape:pageopacity="0"
     inkscape:pagecheckerboard="1"
     inkscape:deskcolor="#505050"
     showgrid="false"
     inkscape:zoom="0.80249998"
     inkscape:cx="347.66356"
     inkscape:cy="345.17135"
     inkscape:window-width="1366"
     inkscape:window-height="715"
     inkscape:window-x="-8"
     inkscape:window-y="-8"
     inkscape:window-maximized="1"
     inkscape:current-layer="g10">
    <inkscape:page
       x="0"
       y="0"
       id="page8"
       width="666.66669"
       height="666.66669" />
  </sodipodi:namedview>
  <g
     id="g10"
     inkscape:groupmode="layer"
     inkscape:label="Page 1"
     transform="matrix(1.3333333,0,0,-1.3333333,0,666.66667)">
    <path
       d="M 0,0 H 500 V 500 H 0 Z"
       style="fill:#ffffff;fill-opacity:1;fill-rule:nonzero;stroke:none"
       id="path12" />
    <g
       id="g14">
      <g
         id="g16"
         clip-path="url(#clipPath20)">
        <g
           id="g22"
           transform="translate(356.6331,296.9669)">
          <path
             d="m 0,0 c 0,-58.892 -47.741,-106.633 -106.633,-106.633 -58.892,0 -106.633,47.741 -106.633,106.633 0,58.892 47.741,106.633 106.633,106.633 C -47.741,106.633 0,58.892 0,0"
             style="fill:#c4d6e9;fill-opacity:1;fill-rule:nonzero;stroke:none"
             id="path24" />
        </g>
        <g
           id="g26"
           transform="translate(242.1333,190.9819)">
          <path
             d="m 0,0 c 0.055,-0.025 0.105,-0.055 0.15,-0.091 1.22,-0.982 1.768,-3.339 2.667,-4.652 1.178,-1.719 2.562,-3.298 4.104,-4.699 2.974,-2.702 6.552,-4.749 10.419,-5.856 5.2,-1.489 10.714,-1.302 15.967,-0.188 5.121,1.085 13.165,2.269 10.741,9.655 -0.21,0.638 -2.057,3.786 -3.063,3.021 1.891,1.437 3.386,3.391 4.28,5.592 0.395,0.972 0.68,2.002 1.262,2.874 0.582,0.873 1.833,1.965 2.877,1.863 -0.096,-6.055 0.269,-12.671 4.274,-17.212 3.814,-4.326 10.038,-5.649 15.805,-5.598 1.486,0.013 3.019,0.112 4.353,0.768 2.006,0.985 3.298,3.261 3.116,5.487 -0.181,2.227 -1.825,4.264 -3.964,4.911 -1.045,0.316 -2.16,0.321 -3.218,0.589 -2.331,0.591 -4.288,3.657 -5.046,5.789 -0.783,2.203 -0.877,4.602 -0.619,6.926 0.014,0.128 0.031,0.261 0.097,0.372 0.122,0.203 0.374,0.279 0.602,0.342 2.475,0.677 4.878,1.617 7.156,2.797 0.246,-0.034 0.732,-0.979 0.487,-1.02 2.17,-10.322 7.282,-25.539 20.662,-24.79 4.388,-0.263 10.226,4.102 9.01,8.885 -0.816,3.204 -3.969,4.912 -7.124,4.037 -1.612,-0.447 -3.293,-1.492 -4.823,-0.818 -0.49,0.217 -0.891,0.591 -1.269,0.971 -1.786,1.797 -2.646,3.775 -2.973,6.309 -0.414,3.204 0.557,6.408 1.516,9.494 l 6.649,21.388 c 0.563,-0.858 1.126,-1.715 1.69,-2.573 0.407,0.02 0.662,0.496 0.658,0.905 -0.03,3.249 -0.339,6.496 -0.924,9.692 1.128,-0.774 2.178,-1.66 3.131,-2.64 -0.03,3.349 -0.107,6.878 -1.823,9.754 -1.77,2.969 -5.062,4.831 -6.659,7.896 -0.242,0.465 -0.433,1.055 -0.134,1.485 0.166,0.239 0.448,0.365 0.718,0.472 1.869,0.734 4.165,1.04 6.168,0.905 5.666,-0.38 11.573,-0.349 16.735,2.018 5.161,2.367 9.373,7.638 8.857,13.293 -0.036,0.401 -0.105,0.824 -0.364,1.132 -0.305,0.363 -0.802,0.49 -1.268,0.574 -1.649,0.299 -3.339,0.324 -4.99,0.616 -4.087,0.721 -7.849,3.137 -10.204,6.554 -2.355,3.418 -3.274,7.793 -2.493,11.87 1.552,-0.856 3.416,-1.464 4.967,-2.32 1.365,10.174 -2.962,20.927 -10.994,27.32 1.118,0.764 2.339,1.379 3.619,1.821 -1.155,1.036 -2.207,2.056 -3.737,2.315 1.211,7.467 -0.789,15.108 -3.7,22.09 -0.289,0.691 -5.537,9.485 -6.042,9.093 -2.225,-1.725 -3.093,-4.843 -4.105,-7.342 -1.254,-3.095 -2.744,-6.036 -4.361,-8.956 -0.812,-1.467 -1.502,-3 -2.421,-4.414 -0.459,-0.708 -2.995,-3.034 -3.024,-3.665 0.02,0.446 0.255,0.421 0.189,0.863 -1.381,9.25 -5.183,18.297 -10.526,25.975 -6.646,-10.298 -13.293,-20.597 -19.94,-30.895 -2.739,-4.244 -5.56,-8.718 -5.966,-13.753 -0.207,-2.556 0.05,-5.187 0.548,-7.702 -2.583,0.56 -4.673,2.908 -4.929,5.539 -2.778,-5.193 -1.645,-12.182 2.631,-16.231 -1.589,-0.316 -3.248,-0.27 -4.817,0.133 0.966,-2.573 3.45,-4.938 5.984,-6 -2.048,-0.841 -4.147,-1.557 -6.283,-2.14 2.058,-3.321 6.456,-4.983 10.195,-3.855 -2.948,-3.206 -3.893,-7.656 -2.985,-11.916 1.687,1.573 3.698,2.796 5.871,3.57 0.509,0.181 1.071,0.338 1.581,0.16 0.893,-0.31 1.164,-1.531 0.786,-2.397 -0.378,-0.867 -1.189,-1.452 -1.963,-1.994 -1.189,-0.831 -2.249,-1.829 -3.438,-2.661 1.922,-1.648 3.984,-2.336 6.474,-1.554 1.923,0.604 4.264,1.933 6.314,1.188 3.352,-1.219 4.014,-5.864 2.414,-8.698 -1.61,-2.851 -4.803,-4.4 -7.914,-5.421 C 43.846,56.014 39.919,55.3 36.091,54.235 23.595,50.755 11.851,42.492 3.514,32.554 1.366,37.745 2.179,43.759 4.298,48.961 c 2.12,5.202 5.443,9.806 8.457,14.546 6.485,10.2 11.531,21.259 15.222,32.768 3.725,11.617 3.538,23.717 4.081,35.904 0.216,4.827 0.306,9.913 1.765,14.52 3.123,9.86 6.587,20.252 14.437,26.987 4.943,4.242 10.961,6.875 17.229,8.644 -8.577,6.402 -20.275,6.855 -30.805,4.941 -5.582,-1.014 -11.12,-2.643 -15.992,-5.549 -4.873,-2.906 -8.837,-6.882 -10.933,-12.153 -6.748,6.448 -16.05,10.265 -24.735,13.266 -4.563,1.576 -9.312,2.613 -14.117,3.09 -2.402,0.239 -4.818,0.337 -7.231,0.293 -0.806,-0.015 -6.384,-0.891 -6.703,-0.496 1.89,-2.341 6.558,-3.949 9.131,-5.581 3.248,-2.061 6.434,-4.231 9.454,-6.616 5.813,-4.589 11.115,-10.027 14.512,-16.675 1.369,-2.68 2.46,-5.618 2.293,-8.624 -5.244,8.151 -10.167,15.48 -18.761,20.529 -7.875,4.627 -17.35,7.01 -23.506,13.758 -4.984,5.464 -7.334,12.813 -5.016,19.963 -7.068,-4.933 -10.507,-13.54 -10.821,-22.113 -0.263,-7.172 2.706,-14.993 6.944,-20.699 1.053,-1.417 2.22,-2.763 3.063,-4.315 -7.392,4.8 -13.9,9.657 -16.897,18.351 -2.475,7.18 -2.223,15.8 1.048,22.655 -3.519,-2.112 -6.149,-5.495 -7.925,-9.196 -1.775,-3.7 -2.755,-7.729 -3.538,-11.758 -0.52,-2.672 -0.852,-5.345 -1.21,-8.044 -1.594,2.114 -2.189,4.806 -2.558,7.429 -1.057,7.515 -0.509,15.21 1.444,22.543 -11.278,-5.977 -19.636,-17.193 -22.14,-29.709 -2.504,-12.516 1.379,-26.352 9.49,-36.208 -13.041,4.014 -22.856,16.725 -23.874,30.331 -5.407,-8.844 -7.438,-19.697 -5.595,-29.899 1.919,-10.624 7.663,-19.978 12.224,-29.763 -9.391,5.498 -21.438,6.185 -31.393,1.788 -9.954,-4.396 -17.723,-14.05 -19.985,-24.695 3.845,3.743 9.475,5.416 14.811,4.853 5.336,-0.564 10.34,-3.239 14.139,-7.028 2.862,-2.855 5.063,-6.296 7.101,-9.787 4.903,-8.399 9.341,-17.356 15.608,-24.793 -3.814,-1.991 -7.074,-4.296 -10.12,-7.333 -2.517,-2.51 -4.971,-5.141 -6.732,-8.228 -1.761,-3.088 -2.795,-6.701 -2.275,-10.218 0.144,-0.976 0.406,-1.935 0.778,-2.848 0.068,-0.166 0.17,-0.354 0.348,-0.372 0.129,-0.013 0.245,0.073 0.346,0.154 3.737,2.997 7.193,6.849 11.968,7.826 4.735,0.969 9.543,0.764 14.179,-0.628 8.404,-2.524 15.053,-8.579 21.596,-14.14 8.884,-7.551 20.516,-11.267 32.113,-12.473 11.597,-1.207 23.295,-0.083 34.9,1.042 3.636,0.352 7.3,0.717 10.849,1.617 C -7.25,-2.73 -1.55,0.697 0,0"
             style="fill:#f88f86;fill-opacity:1;fill-rule:nonzero;stroke:none"
             id="path28" />
        </g>
        <g
           id="g30"
           transform="translate(297.9171,301.7232)">
          <path
             d="m 0,0 c -3.091,-0.521 -6.274,-1.145 -9.42,-1.142 -2.471,0.002 -5.033,-0.713 -7.451,0.104 -0.302,0.102 -0.612,0.231 -0.806,0.483 -1.426,1.85 -0.68,7.069 -0.294,9.162 0.938,5.093 3.744,9.617 6.495,14.004 5.273,8.41 10.547,16.82 15.82,25.229 C 4.08,47.419 5.84,43.723 6.038,43.096 6.581,41.371 7.056,39.624 7.461,37.862 8.273,34.336 8.806,30.747 9.062,27.139 9.572,19.922 8.969,12.623 7.238,5.598 6.884,4.16 6.734,2.303 5.521,1.37 4.225,0.373 1.556,0.262 0,0"
             style="fill:#fef7e5;fill-opacity:1;fill-rule:nonzero;stroke:none"
             id="path32" />
        </g>
        <g
           id="g34">
          <g
             id="g36" />
          <g
             id="g48">
            <g
               clip-path="url(#clipPath40)"
               id="g46">
              <g
                 transform="translate(285.9519,307.6099)"
                 id="g44">
                <path
                   d="m 0,0 c -1.534,0.766 -3.326,2.006 -3.03,3.695 0.116,0.662 0.551,1.218 1.001,1.716 1.868,2.07 4.907,3.724 7.365,2.408 -0.134,2.148 0.17,4.323 0.888,6.352 0.693,1.957 2.104,3.998 4.176,4.125 0.897,0.055 1.8,-0.269 2.687,-0.121 1.951,0.324 2.811,2.609 3.197,4.549 1.15,5.78 1.374,11.743 0.664,17.593 C 21.725,27.114 22.587,12.522 19.396,-1.151 19.135,-2.27 18.83,-3.42 18.118,-4.322 16.573,-6.277 13.72,-6.444 11.228,-6.446 8.224,-6.447 4.58,-5.586 1.652,-6.396 0.132,-6.817 -1.503,-8.271 -2.839,-6.555 -3.971,-5.1 -2.301,1.149 0,0"
                   style="fill:#e5d9e6;fill-opacity:1;fill-rule:nonzero;stroke:none"
                   id="path42" />
              </g>
            </g>
          </g>
        </g>
        <g
           id="g50"
           transform="translate(332.1694,251.903)">
          <path
             d="M 0,0 C 0.384,-1.665 2.498,-3.145 3.632,-4.375 6.976,-8 8.828,-12.963 8.676,-17.893 c -1.124,0.884 -2.248,1.767 -3.373,2.65 1.288,-3.767 1.49,-7.899 0.575,-11.774 -0.599,1.305 -1.071,2.779 -1.982,3.889 -1.222,-7.126 -5.257,-11.555 -10.612,-16.413 -0.32,-0.29 -1.806,-1.281 -2.126,-1.136 -0.293,0.133 -1.707,1.981 -1.893,2.243 -1.892,2.668 -3.415,4.998 -3.869,8.237 -0.976,-0.832 -1.951,-1.665 -2.927,-2.497 -1.977,3.235 -2.786,7.168 -2.246,10.921 -3.046,-1.03 -5.759,-3.023 -7.653,-5.621 -2.16,3.14 -2.376,7.192 -2.326,11.003 0.054,4.13 0.405,8.48 2.712,11.906 1.3,1.932 3.207,3.55 3.81,5.799 0.869,3.238 -1.233,6.43 -2.953,9.307 -1.721,2.877 -3.089,6.742 -1.022,9.381 1.792,2.288 5.339,2.336 8.013,1.199 2.675,-1.137 4.862,-3.173 7.409,-4.573 5.121,-2.817 11.259,-2.872 17.103,-2.772 5.061,0.087 10.122,0.238 15.18,0.452 1.414,0.06 2.945,0.169 4.017,1.094 0.514,-2.567 1.925,-5.003 4.247,-6.213 C 29.052,9.037 25.274,5.394 24.898,5.125 23.186,3.9 21.066,2.87 18.961,2.576 14.503,1.952 9.577,2.262 4.97,1.84 3.081,1.666 1.635,1.059 -0.044,0.248 -0.034,0.165 -0.019,0.082 0,0"
             style="fill:#fef7e5;fill-opacity:1;fill-rule:nonzero;stroke:none"
             id="path52" />
        </g>
        <g
           id="g54">
          <g
             id="g56" />
          <g
             id="g68">
            <g
               clip-path="url(#clipPath60)"
               id="g66">
              <g
                 transform="translate(304.6302,266.131)"
                 id="g64">
                <path
                   d="m 0,0 c 3.62,-3.656 7.629,-7.029 12.301,-9.185 2.636,-1.217 5.488,-2.021 8.389,-2.23 1.416,-0.102 7.713,-0.465 6.959,1.808 -0.561,1.688 -1.546,3.199 -2.52,4.688 1.15,-1.757 5.67,-2.997 7.574,-3.614 2.678,-0.867 5.494,-1.435 8.314,-1.451 5.631,-0.031 11.484,1.65 15.718,5.479 -1.073,-3.871 -5.176,-6.17 -9.142,-6.81 -3.966,-0.639 -8.027,-0.053 -12.033,-0.354 -2.947,-0.222 -5.848,-1.244 -8.766,-1.631 0.988,-1.594 2.542,-3.213 3.267,-4.909 0.315,-0.736 0.378,-1.552 0.397,-2.352 0.032,-1.283 -0.038,-2.568 -0.209,-3.84 -0.74,0.736 -2.051,1.936 -3.13,2.097 -1.54,0.229 -1.212,0.05 -1.828,-1.406 -0.353,-0.834 -3.713,-6.474 -3.561,-6.853 -0.803,2.001 -1.772,3.935 -2.894,5.776 -0.222,0.365 -0.52,0.767 -0.947,0.776 -0.323,0.007 -0.598,-0.22 -0.84,-0.435 -0.892,-0.79 -1.784,-1.581 -2.677,-2.372 -0.778,1.806 -1.557,3.611 -2.336,5.417 -0.237,0.549 -0.51,1.138 -1.039,1.416 -1.819,0.953 -3.785,-2.669 -5.554,-1.626 -0.289,0.17 -0.5,0.446 -0.684,0.727 -1.994,3.038 -1.067,6.029 0.021,9.1 0.867,2.452 -1.202,3.8 -2.469,5.504 -0.733,0.985 -1.33,2.072 -1.728,3.235 C 0.381,-2.455 0.343,-0.347 0,0"
                   style="fill:#e5d9e6;fill-opacity:1;fill-rule:nonzero;stroke:none"
                   id="path62" />
              </g>
            </g>
          </g>
        </g>
        <g
           id="g70">
          <g
             id="g72" />
          <g
             id="g84">
            <g
               clip-path="url(#clipPath76)"
               opacity="0.399994"
               id="g82">
              <g
                 transform="translate(309.5001,292.1518)"
                 id="g80">
                <path
                   d="m 0,0 c 6.377,0.99 13.027,0.156 18.962,-2.378 -0.171,0.839 -0.387,1.668 -0.646,2.484 1.474,0.664 3.149,-0.307 4.388,-1.345 4.66,-3.907 7.942,-9.425 9.151,-15.385 0.185,-0.916 -13.614,-1.806 -15.048,-1.6 -5.67,0.816 -11.152,3.979 -14.182,8.92 C 2.117,-8.476 -1.141,-0.178 0,0"
                   style="fill:#f88f86;fill-opacity:1;fill-rule:nonzero;stroke:none"
                   id="path78" />
              </g>
            </g>
          </g>
        </g>
        <g
           id="g86"
           transform="translate(257.3626,183.918)">
          <path
             d="M 0,0 C 1.384,-0.398 3.03,-1.564 4.014,-0.511 5.233,0.794 3.763,2.892 5.41,4.225 7.331,5.779 9.164,5.516 11.03,4.069 14.396,1.459 18.156,2.03 21.998,3.288 23.284,3.709 24.647,4.183 25.96,3.854 27.992,3.344 29.124,0.99 28.91,-1.093 28.709,-3.056 27.565,-4.777 26.085,-6.029 24.39,-7.464 22.903,-7.804 20.719,-8.159 15.943,-8.935 11.077,-9.157 6.25,-8.816 3.227,-8.602 -2.758,-8.032 -4.021,-4.708 -5.112,-1.835 -3.022,0.869 0,0"
             style="fill:#5b8ab9;fill-opacity:1;fill-rule:nonzero;stroke:none"
             id="path88" />
        </g>
        <g
           id="g90"
           transform="translate(293.3659,190.3102)">
          <path
             d="m 0,0 c 1.078,-0.89 2.156,-1.78 3.234,-2.671 0.361,-0.297 0.777,-0.613 1.242,-0.564 0.816,0.086 1.08,1.138 1.08,1.959 0,0.82 0.063,1.846 0.822,2.159 0.595,0.246 1.271,-0.141 1.696,-0.625 0.425,-0.484 0.729,-1.083 1.243,-1.471 0.229,-0.173 0.58,-0.286 0.781,-0.081 0.137,0.139 0.133,0.36 0.127,0.556 -0.032,1.057 0.16,2.12 0.559,3.099 0.08,0.198 0.178,0.403 0.355,0.523 0.428,0.289 0.993,-0.077 1.335,-0.464 1.228,-1.387 1.893,-3.32 3.473,-4.288 1.581,-0.967 3.625,-0.683 5.372,-1.305 2.098,-0.747 3.535,-2.73 4.328,-4.811 0.19,-0.498 0.353,-1.024 0.31,-1.555 -0.046,-0.572 -0.327,-1.099 -0.663,-1.564 -1.464,-2.029 -3.983,-3.088 -6.472,-3.346 -2.489,-0.258 -4.991,0.185 -7.455,0.627 -3.506,0.628 -6.256,1.522 -8.453,4.349 -1.007,1.297 -2.158,2.725 -2.77,4.261 C -0.089,-4.63 -0.203,0.167 0,0"
             style="fill:#5b8ab9;fill-opacity:1;fill-rule:nonzero;stroke:none"
             id="path92" />
        </g>
        <g
           id="g94"
           transform="translate(318.7018,191.2899)">
          <path
             d="m 0,0 c 0.005,0.072 0.013,0.145 0.022,0.216 0.375,3.035 3.53,-0.43 3.693,1.783 0.033,0.449 0.131,0.91 0.397,1.273 C 4.379,3.636 4.844,3.88 5.284,3.781 5.651,3.698 5.928,3.404 6.245,3.201 6.563,2.998 7.031,2.903 7.283,3.183 7.552,3.482 7.376,3.957 7.454,4.352 7.54,4.785 7.925,5.084 8.283,5.342 8.602,5.573 9.007,5.814 9.363,5.646 9.567,5.55 9.691,5.344 9.803,5.148 c 1.23,-2.143 1.466,-4.886 3.892,-6.099 0.933,-0.337 1.962,-0.162 2.94,0.005 1.848,0.317 3.752,0.593 5.588,0.208 1.836,-0.385 3.615,-1.565 4.205,-3.345 0.68,-2.051 -0.374,-4.321 -1.889,-5.862 -3.406,-3.466 -8.994,-4.2 -13.561,-2.539 C 7.312,-11.15 3.791,-8.485 1.68,-5.189 0.747,-3.734 -0.137,-1.794 0,0"
             style="fill:#5b8ab9;fill-opacity:1;fill-rule:nonzero;stroke:none"
             id="path96" />
        </g>
        <g
           id="g98"
           transform="translate(356.5169,267.6)">
          <path
             d="m 0,0 c 0.378,-2.069 1.67,-4.272 2.641,-5.402 0.511,-0.594 1.177,-1.208 1.955,-1.123 0.732,0.08 1.243,0.746 1.627,1.374 0.604,0.987 1.123,2.026 1.55,3.102 0.389,0.98 0.705,2.023 0.611,3.073 C 8.244,2.573 7.165,3.584 5.702,3.932 4.62,4.189 1.631,4.391 0.823,3.598 -0.099,2.695 -0.252,1.377 0,0"
             style="fill:#5b8ab9;fill-opacity:1;fill-rule:nonzero;stroke:none"
             id="path100" />
        </g>
        <g
           id="g102"
           transform="translate(337.287,277.1633)">
          <path
             d="m 0,0 c -1.905,3.055 -3.881,6.188 -6.791,8.308 -4.565,3.328 -11.192,3.514 -15.937,0.45 0.96,-4.541 4.226,-8.73 8.55,-10.414 C -9.854,-3.34 -3.778,-2.694 0,0"
             style="fill:#5b8ab9;fill-opacity:1;fill-rule:nonzero;stroke:none"
             id="path104" />
        </g>
        <g
           id="g106"
           transform="translate(323.7501,282.3627)">
          <path
             d="m 0,0 c 0.452,-1.714 2.113,-3.248 3.852,-2.904 0.989,0.196 1.795,0.951 2.293,1.827 0.499,0.876 0.736,1.873 0.967,2.854 0.047,0.199 0.094,0.406 0.05,0.606 C 7.093,2.697 6.818,2.917 6.557,3.105 5.301,4.009 3.95,4.78 2.534,5.401 -0.464,6.717 -0.474,1.796 0,0"
             style="fill:#f8c469;fill-opacity:1;fill-rule:nonzero;stroke:none"
             id="path108" />
        </g>
        <g
           id="g110"
           transform="translate(306.3673,315.2643)">
          <path
             d="m 0,0 c 1.061,10.531 0.976,21.488 -3.033,31.283 -0.234,0.571 -0.484,1.155 -0.488,1.772 -0.008,1.681 1.75,2.86 2.138,4.496 C 3.393,31.442 7.185,24.39 8.462,16.743 9.213,12.247 9.082,7.654 8.9,3.1 8.755,-0.499 8.523,-4.282 6.589,-7.321 5.703,-8.714 4.462,-9.872 3.038,-10.702 c -0.832,-0.485 -4.141,-2.153 -5.054,-1.355 -0.824,0.72 0.833,4.373 1.058,5.432 C -0.495,-4.441 -0.224,-2.22 0,0"
             style="fill:#5b8ab9;fill-opacity:1;fill-rule:nonzero;stroke:none"
             id="path112" />
        </g>
        <g
           id="g114"
           transform="translate(286.6267,301.7517)">
          <path
             d="m 0,0 c -0.234,0.03 -0.499,0.088 -0.615,0.294 -0.119,0.212 -0.022,0.478 0.096,0.692 0.67,1.217 1.927,2.025 3.251,2.447 1.325,0.421 2.73,0.501 4.118,0.578 -1.742,2.179 -4.263,3.721 -6.996,4.28 0.097,1.099 1.237,1.794 2.302,2.078 2.953,0.787 6.322,-0.32 8.231,-2.706 0.533,2.782 -0.431,5.805 -2.475,7.766 3.042,-0.07 5.943,-1.796 7.664,-4.306 C 17.296,8.614 17.87,5.402 17.374,2.4 17.312,2.026 17.23,1.644 17.021,1.328 16.746,0.912 16.286,0.662 15.846,0.429 13.087,-1.034 11.583,-1.233 8.737,-0.419 5.916,0.387 2.876,-0.371 0,0"
             style="fill:#fef7e5;fill-opacity:1;fill-rule:nonzero;stroke:none"
             id="path116" />
        </g>
        <g
           id="g118"
           transform="translate(326.7677,347.1463)">
          <path
             d="m 0,0 c 0.272,0.998 0.697,2.183 1.711,2.384 0.916,0.182 1.73,-0.575 2.327,-1.293 6.635,-7.97 8.78,-18.85 8.541,-29.217 -2.431,-0.081 -4.861,-0.161 -7.292,-0.242 1.033,1.262 1.956,2.614 2.753,4.037 -6.089,2.14 -13.207,1.075 -18.404,-2.753 -0.142,2.424 -0.827,5.078 0.414,7.126 1.278,2.107 2.896,4.006 4.148,6.15 C -3.276,-9.485 -1.316,-4.831 0,0"
             style="fill:#5b8ab9;fill-opacity:1;fill-rule:nonzero;stroke:none"
             id="path120" />
        </g>
        <g
           id="g122"
           transform="translate(266.7006,376.3691)">
          <path
             d="m 0,0 c 4.659,1.709 9.618,2.435 14.559,2.894 2.466,0.229 4.944,0.394 7.417,0.268 5.436,-0.275 10.693,-1.941 15.879,-3.593 1.426,-0.454 3.056,-1.111 3.458,-2.553 -5.219,-1.693 -10.521,-3.428 -15.028,-6.556 -7.972,-5.535 -12.499,-14.717 -16.232,-23.676 -0.015,4.107 -1.086,8.206 -3.08,11.795 -2.198,-2.128 -4.395,-4.256 -6.593,-6.384 1.045,3.903 2.091,7.811 2.792,11.79 -3.14,-1.426 -6.215,-2.995 -9.212,-4.702 -1.218,2.376 2.428,6.787 0.606,8.398 -0.955,0.845 -7.563,-1.946 -7.709,-3.14 C -12.18,-7.565 -7.234,-2.654 0,0"
             style="fill:#fef7e5;fill-opacity:1;fill-rule:nonzero;stroke:none"
             id="path124" />
        </g>
        <g
           id="g126"
           transform="translate(216.3075,364.1354)">
          <path
             d="m 0,0 c -5.74,4.765 -12.222,8.563 -18.877,11.933 3.019,1.588 6.645,1.271 10.033,0.879 C -2.841,12.118 3.198,11.306 8.904,9.32 11.908,8.275 14.791,6.914 17.668,5.556 25.619,1.802 33.97,-2.289 38.806,-9.632 c -2.988,1.331 -6.11,2.365 -9.302,3.082 0.724,-3.684 1.447,-7.369 2.171,-11.053 -2.338,1.959 -4.862,3.694 -7.529,5.174 -0.971,0.539 -2.431,0.927 -2.989,-0.033 -0.213,-0.364 -0.198,-0.813 -0.178,-1.235 0.142,-2.903 0.284,-5.806 0.425,-8.71 -0.091,1.879 -4.24,3.953 -5.655,4.56 -2.487,1.067 -2.923,2.968 -4.385,5.246 C 8.296,-7.818 4.364,-3.622 0,0"
             style="fill:#fef7e5;fill-opacity:1;fill-rule:nonzero;stroke:none"
             id="path128" />
        </g>
        <g
           id="g130"
           transform="translate(174.2245,369.8919)">
          <path
             d="M 0,0 C -0.605,8.945 3.152,18.484 10.751,23.241 9.645,18.101 10.55,12.594 13.033,7.959 c 2.483,-4.635 6.493,-8.395 11.171,-10.796 4.377,-2.246 9.404,-3.401 13.123,-6.621 -3.017,-0.789 -6.172,-1.049 -9.277,-0.762 0.693,-2.556 1.386,-5.111 2.079,-7.667 -3.315,1.392 -6.757,2.482 -10.27,3.25 0.774,-2.889 1.548,-5.778 2.321,-8.666 -2.207,1.405 -4.415,2.81 -6.622,4.216 -2.326,1.328 -1.882,-0.925 -1.662,-2.531 0.37,-2.689 0.955,-5.334 1.548,-8.004 -0.753,0.372 -1.317,1.033 -1.853,1.679 -4.18,5.039 -7.889,9.929 -10.522,15.922 C 1.397,-8.216 0.281,-4.154 0,0"
             style="fill:#fef7e5;fill-opacity:1;fill-rule:nonzero;stroke:none"
             id="path132" />
        </g>
        <g
           id="g134"
           transform="translate(168.452,387.2981)">
          <path
             d="m 0,0 c -2.658,-6.428 -3.15,-13.73 -1.38,-20.456 1.77,-6.727 5.793,-12.84 11.271,-17.128 -3.06,-0.837 -5.774,1.945 -8.647,3.29 -0.471,0.22 -1.035,0.401 -1.493,0.155 -0.561,-0.301 -0.65,-1.054 -0.67,-1.691 -0.058,-1.791 -0.115,-3.582 -0.173,-5.373 -0.835,0.566 -1.477,1.369 -2.244,2.023 -0.767,0.655 -1.756,1.178 -2.749,1.002 -0.993,-0.176 -1.815,-1.327 -1.35,-2.222 -1.435,2.757 -3.241,4.775 -4.078,7.91 -0.669,2.503 -0.853,4.75 -0.652,7.325 0.48,6.118 2.366,12.051 5.602,17.276 C -4.755,-4.972 -2.549,-2.299 0,0"
             style="fill:#fef7e5;fill-opacity:1;fill-rule:nonzero;stroke:none"
             id="path136" />
        </g>
        <g
           id="g138"
           transform="translate(133.0069,362.0702)">
          <path
             d="m 0,0 c 0.011,0.041 0.023,0.082 0.034,0.123 1.029,3.666 3.227,6.605 5.064,9.909 3.806,6.85 9.476,12.871 16.848,15.835 -4.892,-15.614 -1.429,-33.585 8.915,-46.264 -3.14,1.585 -6.28,3.169 -9.42,4.754 -0.466,-2.857 -0.931,-5.713 -1.397,-8.569 -0.056,-0.342 -0.14,-0.726 -0.437,-0.903 -0.488,-0.29 -1.062,0.205 -1.39,0.669 -1.883,2.663 -3.14,6.165 -6.173,7.363 -0.354,0.139 -0.748,0.241 -1.111,0.127 -0.769,-0.242 -0.942,-1.235 -0.979,-2.041 -0.112,-2.428 -0.224,-4.857 -0.336,-7.286 -1.355,0.381 -2.221,1.701 -2.762,3.002 -0.54,1.3 -0.904,2.715 -1.804,3.798 -0.316,0.381 -0.806,0.736 -1.269,0.561 -0.567,-0.215 -0.597,-0.995 -0.527,-1.597 0,-3.273 0.916,-6.607 1.128,-9.874 -0.05,0.776 -1.969,2.655 -2.412,3.436 -0.781,1.375 -1.389,2.837 -1.92,4.323 -1.021,2.857 -1.415,5.97 -1.563,9.013 C -1.735,-9.039 -1.227,-4.421 0,0"
             style="fill:#fef7e5;fill-opacity:1;fill-rule:nonzero;stroke:none"
             id="path140" />
        </g>
        <g
           id="g142"
           transform="translate(112.4278,332.4175)">
          <path
             d="m 0,0 c -0.149,-2.888 0.113,-5.788 0.618,-8.635 1.377,-7.771 4.585,-15.211 9.29,-21.548 -0.758,3.843 -1.512,7.845 -0.511,11.631 2.716,-1.792 5.431,-3.584 8.147,-5.376 1.26,-0.832 2.907,-1.678 4.179,-0.864 -1.884,3.046 -3.066,6.524 -3.43,10.087 2.628,-1.019 3.966,-4.629 6.781,-4.752 -0.542,1.444 -1.085,2.889 -1.628,4.333 -0.15,0.398 -0.301,0.834 -0.171,1.24 0.289,0.906 1.572,0.869 2.497,0.647 2.907,-0.697 5.814,-1.393 8.72,-2.09 -1.524,3.55 -5.628,5.029 -9.093,6.741 C 20.036,-5.937 15.434,-1.833 12.05,3.087 10.388,5.504 9.015,8.122 7.986,10.869 7.312,12.666 6.898,18.279 5.532,19.219 3.633,17.056 2.776,12.75 1.931,10.007 0.928,6.754 0.176,3.408 0,0"
             style="fill:#fef7e5;fill-opacity:1;fill-rule:nonzero;stroke:none"
             id="path144" />
        </g>
        <g
           id="g146"
           transform="translate(128.8476,284.472)">
          <path
             d="m 0,0 c -2.829,-3.06 -5.231,-6.706 -5.889,-10.82 8.128,1.97 16.506,3.953 24.774,2.697 4.077,-0.619 7.996,-2.013 11.816,-3.567 4.726,-1.923 9.347,-4.102 13.836,-6.526 l -7.719,12.104 c -0.164,0.257 -0.333,0.528 -0.354,0.833 -0.046,0.656 0.585,1.146 1.179,1.431 3.638,1.747 7.99,0.607 11.943,1.427 -3.762,2.053 -7.394,4.342 -10.869,6.85 3.142,2.124 7.006,2.818 10.743,3.462 -1.332,0.854 -3.053,0.691 -4.588,1.08 -1.91,0.484 -1.957,1.938 -3.053,3.169 -0.973,1.094 -2.085,1.109 -3.531,1.26 -3.405,0.357 -6.846,0.357 -10.251,0.006 C 21.271,12.707 14.616,10.617 8.778,7.104 5.541,5.157 2.565,2.775 0,0"
             style="fill:#fef7e5;fill-opacity:1;fill-rule:nonzero;stroke:none"
             id="path148" />
        </g>
        <g
           id="g150"
           transform="translate(81.1414,274.3365)">
          <path
             d="m 0,0 c 1.656,0.349 3.369,0.245 5.057,0.135 2.577,-0.167 5.186,-0.351 7.638,-1.164 6.053,-2.008 10.234,-7.484 15.704,-10.764 -0.991,2.602 -1.982,5.204 -2.973,7.805 -0.524,1.374 -0.92,3.221 0.28,4.07 0.603,0.427 1.403,0.41 2.14,0.368 2.063,-0.117 4.122,-0.295 6.175,-0.535 -1.213,1.504 -2.426,3.008 -3.638,4.512 -0.545,0.676 -1.118,1.581 -0.707,2.345 0.236,0.439 0.728,0.665 1.19,0.851 2.89,1.163 5.949,1.906 9.051,2.201 -1.486,1.035 -2.971,2.07 -4.456,3.105 -0.64,0.447 -1.341,0.993 -1.411,1.77 -0.125,1.39 1.688,2.006 3.077,2.146 1.404,0.142 2.809,0.283 4.213,0.424 0.371,0.038 0.776,0.091 1.033,0.362 0.669,0.703 -0.325,1.753 -1.205,2.161 C 31.922,24.081 20.816,23.495 11.527,19.301 5.814,16.722 0.659,12.654 -2.884,7.457 -4.626,4.903 -5.969,2.067 -6.725,-0.935 -7.295,-3.196 -7.188,-3.736 -5.114,-2.402 -3.512,-1.371 -1.89,-0.398 0,0"
             style="fill:#fef7e5;fill-opacity:1;fill-rule:nonzero;stroke:none"
             id="path152" />
        </g>
        <g
           id="g154"
           transform="translate(107.5455,215.6615)">
          <path
             d="m 0,0 c 1.469,3.32 3.707,6.244 6.14,8.938 1.598,1.769 3.296,3.46 5.206,4.885 4.553,3.397 10.127,5.149 15.699,6.257 4.197,0.834 8.77,1.287 12.565,-0.691 -3.616,-1.664 -6.966,-3.902 -9.887,-6.606 4.773,-1.183 9.948,-2.628 12.822,-6.618 -3.85,0.162 -7.738,-0.71 -11.15,-2.5 C 35.91,2.55 40.046,-0.048 43.01,-3.633 37.269,-4.881 31.313,-3.951 25.471,-3.327 19.629,-2.702 13.479,-2.435 8.129,-4.864 4.641,-6.447 1.746,-9.068 -1.086,-11.647 c 0.063,0.057 -0.59,4.759 -0.55,5.324 C -1.478,-4.142 -0.883,-1.996 0,0"
             style="fill:#fef7e5;fill-opacity:1;fill-rule:nonzero;stroke:none"
             id="path156" />
        </g>
        <g
           id="g158"
           transform="translate(316.3919,320.1637)">
          <path
             d="m 0,0 c 4.894,4.606 12.743,5.73 18.733,2.682 -1.853,-1.329 -3.449,-3.015 -4.675,-4.937 3.723,2.225 8.912,1.613 12.015,-1.418 -1.029,-0.577 -2.057,-1.154 -3.085,-1.731 4.529,-2.56 7.737,-7.094 9.394,-12.025 1.657,-4.931 1.874,-10.247 1.429,-15.43 -1.778,0.931 -3.643,2.099 -5.476,2.755 -0.642,-10.177 4.763,-17.965 15.471,-18.699 1.414,-0.097 3.029,-0.111 3.958,-1.181 3.124,-3.594 -3.667,-11.403 -6.451,-13.213 -5.803,-3.773 -12.783,-2.19 -19.284,-2.958 -7.329,-0.866 -14.955,-3.442 -22.271,-1.123 -4.271,1.354 -8.012,5.71 -10.168,9.638"
             style="fill:none;stroke:#403253;stroke-width:1.5;stroke-linecap:round;stroke-linejoin:round;stroke-miterlimit:10;stroke-dasharray:none;stroke-opacity:1"
             id="path160" />
        </g>
        <g
           id="g162"
           transform="translate(357.6715,271.2865)">
          <path
             d="m 0,0 c -1.101,-1.819 -1.31,-4.151 -0.549,-6.136 0.76,-1.985 2.473,-3.581 4.508,-4.199"
             style="fill:none;stroke:#403253;stroke-width:1.5;stroke-linecap:round;stroke-linejoin:round;stroke-miterlimit:10;stroke-dasharray:none;stroke-opacity:1"
             id="path164" />
        </g>
        <g
           id="g166"
           transform="translate(328.2939,261.5631)">
          <path
             d="M 0,0 C 2.79,-4.513 7.703,-7.354 12.768,-7.354"
             style="fill:none;stroke:#403253;stroke-width:1.5;stroke-linecap:round;stroke-linejoin:round;stroke-miterlimit:10;stroke-dasharray:none;stroke-opacity:1"
             id="path168" />
        </g>
        <g
           id="g170"
           transform="translate(315.4592,325.6163)">
          <path
             d="m 0,0 c 5.943,6.103 8.916,14.406 12.075,22.317 0.34,0.852 0.867,1.841 1.783,1.888 0.759,0.04 1.36,-0.608 1.822,-1.212 6.254,-8.159 9.189,-18.789 8.009,-29.001"
             style="fill:none;stroke:#403253;stroke-width:1.5;stroke-linecap:round;stroke-linejoin:round;stroke-miterlimit:10;stroke-dasharray:none;stroke-opacity:1"
             id="path172" />
        </g>
        <g
           id="g174"
           transform="translate(303.2443,348.4545)">
          <path
             d="M 0,0 C 5.67,-14.466 5.82,-31.019 0.414,-45.586"
             style="fill:none;stroke:#403253;stroke-width:1.5;stroke-linecap:round;stroke-linejoin:round;stroke-miterlimit:10;stroke-dasharray:none;stroke-opacity:1"
             id="path176" />
        </g>
        <g
           id="g178"
           transform="translate(296.6186,300.4973)">
          <path
             d="m 0,0 c 0.287,0.527 -2.606,1.007 -3.196,1.119 -2.49,0.475 -5.103,0.287 -7.5,-0.538 -0.27,1.713 1.139,3.33 2.774,3.906 1.636,0.576 3.43,0.369 5.15,0.154 -1.56,2.693 -4.234,4.716 -7.249,5.486 1.768,0.95 3.713,1.751 5.715,1.616 2.002,-0.136 4.042,-1.455 4.427,-3.425 0.625,3.063 -0.069,6.373 -1.874,8.926 C 3.16,16.56 8.275,10.905 8.241,5.945"
             style="fill:none;stroke:#403253;stroke-width:1.5;stroke-linecap:round;stroke-linejoin:round;stroke-miterlimit:10;stroke-dasharray:none;stroke-opacity:1"
             id="path180" />
        </g>
        <g
           id="g182"
           transform="translate(324.008,287.5965)">
          <path
             d="m 0,0 c -0.587,-1.502 -0.687,-3.19 -0.28,-4.75 0.444,-1.702 1.826,-3.413 3.581,-3.28 2.128,0.162 3.087,2.692 3.558,4.774"
             style="fill:none;stroke:#403253;stroke-width:1.5;stroke-linecap:round;stroke-linejoin:round;stroke-miterlimit:10;stroke-dasharray:none;stroke-opacity:1"
             id="path184" />
        </g>
        <g
           id="g186"
           transform="translate(314.5587,202.4421)">
          <path
             d="m 0,0 c 0.847,-5.963 3.651,-13.771 7.561,-18.351 3.911,-4.581 10.302,-7.399 16.103,-5.78 2.766,0.772 5.377,2.685 6.226,5.429 0.848,2.744 -0.642,6.212 -3.439,6.868 -3.583,0.842 -7.745,-2.753 -10.522,0.974 -3.882,5.21 -1.284,14.627 0.468,20.099 1.607,5.017 3.235,9.283 4.903,14.281"
             style="fill:none;stroke:#403253;stroke-width:1.5;stroke-linecap:round;stroke-linejoin:round;stroke-miterlimit:10;stroke-dasharray:none;stroke-opacity:1"
             id="path188" />
        </g>
        <g
           id="g190"
           transform="translate(309.2842,215.0612)">
          <path
             d="m 0,0 c -1.879,-4.693 -2.012,-6.317 -2.787,-11.313 -0.598,-3.857 -0.839,-7.909 0.523,-11.567 0.631,-1.696 1.686,-3.346 3.322,-4.118 1.275,-0.602 2.743,-0.602 4.106,-0.964 3.105,-0.826 5.624,-4.216 4.604,-7.262 -1.058,-3.157 -4.967,-4.27 -8.297,-4.288 -5.718,-0.031 -11.729,2.02 -15.169,6.587 -2.74,3.637 -3.537,8.352 -3.948,12.887 -0.897,9.868 -0.362,19.866 1.582,29.582"
             style="fill:none;stroke:#403253;stroke-width:1.5;stroke-linecap:round;stroke-linejoin:round;stroke-miterlimit:10;stroke-dasharray:none;stroke-opacity:1"
             id="path192" />
        </g>
        <g
           id="g194"
           transform="translate(306.1402,200.8782)">
          <path
             d="m 0,0 c 3.061,0.882 6.498,1.701 8.702,2.906 3.969,2.17 6.691,3.289 8.485,7.442"
             style="fill:none;stroke:#403253;stroke-width:1.5;stroke-linecap:round;stroke-linejoin:round;stroke-miterlimit:10;stroke-dasharray:none;stroke-opacity:1"
             id="path196" />
        </g>
        <g
           id="g198"
           transform="translate(309.7901,257.2426)">
          <path
             d="m 0,0 c 0.35,-2.796 -3.365,-7.892 -4.665,-9.824 -2.307,-3.427 -2.658,-7.776 -2.712,-11.906 -0.05,-3.812 0.166,-7.864 2.326,-11.004 1.895,2.599 4.607,4.591 7.654,5.622 -0.541,-3.753 0.268,-7.686 2.245,-10.922 0.976,0.833 1.952,1.665 2.927,2.498 0.454,-3.24 1.977,-5.57 3.869,-8.238 0.186,-0.262 1.601,-2.109 1.893,-2.242 0.321,-0.146 1.807,0.845 2.126,1.136 5.356,4.857 9.391,9.287 10.612,16.413 0.911,-1.111 1.383,-2.584 1.983,-3.889 0.914,3.874 0.713,8.006 -0.575,11.774 1.124,-0.884 2.248,-1.767 3.373,-2.65 0.151,4.93 -1.701,9.892 -5.045,13.517 -1.304,1.415 -2.844,2.66 -3.77,4.347"
             style="fill:none;stroke:#403253;stroke-width:1.5;stroke-linecap:round;stroke-linejoin:round;stroke-miterlimit:10;stroke-dasharray:none;stroke-opacity:1"
             id="path200" />
        </g>
        <g
           id="g202"
           transform="translate(245.2469,222.4489)">
          <path
             d="m 0,0 c -2.046,7.017 -0.326,14.654 2.805,21.258 3.132,6.605 7.602,12.467 11.452,18.679 7.134,11.512 11.286,24.765 13.581,38.111 0.865,5.035 1.564,10.113 1.165,15.205 -0.437,5.581 -1.261,10.686 -3.35,15.879 -5.803,14.426 -16.402,26.875 -29.718,34.905 -13.316,8.029 -29.272,11.593 -44.739,9.993 12.392,-6.84 25.41,-14.287 32.31,-26.646 2.493,-4.464 4.068,-9.407 4.925,-14.447 2.348,-13.806 -0.636,-27.916 -3.99,-41.512 -3.354,-13.597 -7.123,-27.376 -6.351,-41.359 0.772,-13.982 5.878,-28.582 18.091,-35.434"
             style="fill:none;stroke:#403253;stroke-width:1.5;stroke-linecap:round;stroke-linejoin:round;stroke-miterlimit:10;stroke-dasharray:none;stroke-opacity:1"
             id="path204" />
        </g>
        <g
           id="g206"
           transform="translate(241.4279,191.7409)">
          <path
             d="m 0,0 c -2.808,-2.545 -8.222,-4.467 -13.543,-5.155 -12.14,-1.572 -24.392,-2.979 -36.598,-2.057 -12.207,0.923 -24.484,4.319 -34.353,11.562 -6.812,4.999 -12.476,11.793 -20.269,15.059 -10.161,4.259 -22.936,1.112 -29.956,-7.38 -2.027,8.15 2.208,16.772 8.302,22.55 7.575,7.181 18.153,11.089 28.578,10.555 9.017,-0.461 17.598,-4.064 25.458,-8.509 7.86,-4.444 15.2,-9.769 23.107,-14.129 C -37.34,15.915 -24.165,11.594 -10.651,9.829 -7.248,9.384 -2.8,9.311 -1.982,9.612"
             style="fill:none;stroke:#403253;stroke-width:1.5;stroke-linecap:round;stroke-linejoin:round;stroke-miterlimit:10;stroke-dasharray:none;stroke-opacity:1"
             id="path208" />
        </g>
        <g
           id="g210"
           transform="translate(239.4462,208.0518)">
          <path
             d="m 0,0 c -5.041,-0.785 -12.728,0.204 -19.022,2.528 -8.808,3.252 -16.431,7.028 -22.259,14.39 -8.734,11.034 -12.716,25.332 -21.926,35.972 -12.785,14.769 -35.431,19.994 -53.395,12.318 0.864,4.08 3.252,7.694 6.058,10.779 9.42,10.358 23.961,15.456 37.925,14.44 13.963,-1.017 27.209,-7.809 37.107,-17.711 9.897,-9.901 16.568,-22.753 20.232,-36.266"
             style="fill:none;stroke:#403253;stroke-width:1.5;stroke-linecap:round;stroke-linejoin:round;stroke-miterlimit:10;stroke-dasharray:none;stroke-opacity:1"
             id="path212" />
        </g>
        <g
           id="g214"
           transform="translate(208.0445,276.26)">
          <path
             d="m 0,0 c 2.166,19.759 -3.125,43.724 -15.145,59.555 -5.569,7.335 -12.532,13.867 -15.957,22.415 -2.389,5.964 -3.038,12.645 -1.879,18.962 1.21,6.596 4.621,12.251 9.839,16.464 -0.167,-5.084 -1.21,-7.905 0.67,-13.125 C -17.656,90.9 1.179,87.65 11.38,79.49 17.887,74.286 23.358,65.947 25.814,57.985"
             style="fill:none;stroke:#403253;stroke-width:1.5;stroke-linecap:round;stroke-linejoin:round;stroke-miterlimit:10;stroke-dasharray:none;stroke-opacity:1"
             id="path216" />
        </g>
        <g
           id="g218"
           transform="translate(250.1332,360.8042)">
          <path
             d="M 0,0 C 5.403,13.418 19.784,17.114 32.498,18.345 41.575,19.223 51.142,17.528 58.564,12.23 47.175,11.083 37.293,2.999 31.696,-6.986 c -5.597,-9.985 -7.43,-21.661 -7.802,-33.102"
             style="fill:none;stroke:#403253;stroke-width:1.5;stroke-linecap:round;stroke-linejoin:round;stroke-miterlimit:10;stroke-dasharray:none;stroke-opacity:1"
             id="path220" />
        </g>
        <g
           id="g222"
           transform="translate(128.9089,284.6091)">
          <path
             d="m 0,0 c -7.396,20.759 -25.921,39.942 -10.543,68.632 0,-13.371 10.031,-23.886 16.427,-27.58 9.088,-5.247 18.248,-7.38 23.767,-12.289 5.617,-4.995 10.487,-7.87 12.866,-15"
             style="fill:none;stroke:#403253;stroke-width:1.5;stroke-linecap:round;stroke-linejoin:round;stroke-miterlimit:10;stroke-dasharray:none;stroke-opacity:1"
             id="path224" />
        </g>
        <g
           id="g226"
           transform="translate(132.3823,275.0979)">
          <path
             d="m 0,0 c 7.266,-13.346 16.058,-25.861 26.15,-37.223 3.227,-3.634 7.581,-8.549 12.073,-10.406"
             style="fill:none;stroke:#403253;stroke-width:1.5;stroke-linecap:round;stroke-linejoin:round;stroke-miterlimit:10;stroke-dasharray:none;stroke-opacity:1"
             id="path228" />
        </g>
        <g
           id="g230"
           transform="translate(124.9262,233.9643)">
          <path
             d="m 0,0 c -5.64,5.969 -9.093,13.607 -13.072,20.791 -3.978,7.184 -8.884,14.325 -16.186,18.083 -7.301,3.758 -17.521,2.943 -22.262,-3.762 2.041,10.969 9.795,20.71 20.027,25.158 10.233,4.447 19.999,5.731 29.411,-0.26 0.895,-0.57 3.029,-2.726 3.716,-3.533"
             style="fill:none;stroke:#403253;stroke-width:1.5;stroke-linecap:round;stroke-linejoin:round;stroke-miterlimit:10;stroke-dasharray:none;stroke-opacity:1"
             id="path232" />
        </g>
        <g
           id="g234"
           transform="translate(143.3764,321.4064)">
          <path
             d="M 0,0 C -13.945,13.999 -12.312,30.008 -9.852,40.898 -7.392,51.787 1.901,62.384 12.028,67.083 6.782,54.233 9.329,39.83 16.093,27.71 21.805,17.475 31.11,9.824 38.748,0.933 46.387,-7.958 52.667,-19.483 50.31,-30.966"
             style="fill:none;stroke:#403253;stroke-width:1.5;stroke-linecap:round;stroke-linejoin:round;stroke-miterlimit:10;stroke-dasharray:none;stroke-opacity:1"
             id="path236" />
        </g>
        <g
           id="g238"
           transform="translate(159.469,349.1166)">
          <path
             d="M 0,0 C -1.448,1.384 -2.809,6.112 -2.915,8.112 -3.528,19.683 1.18,31.429 9.615,39.373 5.605,29.915 5.347,18.446 10.844,9.769 14.772,3.57 19.087,0.71 25.241,-3.287"
             style="fill:none;stroke:#403253;stroke-width:1.5;stroke-linecap:round;stroke-linejoin:round;stroke-miterlimit:10;stroke-dasharray:none;stroke-opacity:1"
             id="path240" />
        </g>
        <g
           id="g242"
           transform="translate(288.9666,197.269)">
          <path
             d="M 0,0 C 0.807,0.21 1.667,0.571 2.454,0.571"
             style="fill:none;stroke:#403253;stroke-width:1.5;stroke-linecap:round;stroke-linejoin:round;stroke-miterlimit:10;stroke-dasharray:none;stroke-opacity:1"
             id="path244" />
        </g>
        <g
           id="g246"
           transform="translate(259.6905,202.2743)">
          <path
             d="m 0,0 c 2.735,5.278 8.16,9.23 14.093,9.608 5.933,0.379 12.076,-3.153 14.211,-8.701 2.136,-5.548 -0.378,-12.638 -5.775,-15.132 3.849,0.416 5.586,-5.517 3.15,-8.526 -2.435,-3.008 -6.704,-3.626 -10.554,-4.028 -4.781,-0.498 -9.65,-0.992 -14.36,-0.037 -11.034,2.237 -19.394,12.67 -20.775,23.843 -1.382,11.174 3.479,22.563 11.34,30.623 7.86,8.061 18.432,13.062 29.329,15.893 4.963,1.289 12.058,2.301 15.745,5.865 2.461,2.38 4.146,7.755 0.175,10.136 -2.813,1.686 -3.915,-0.06 -6.554,-0.786 -2.119,-0.584 -5.578,0.64 -7.337,1.483 0.864,0.275 7.932,6.256 5.092,6.847 -3.083,0.641 -6.516,-1.473 -8.405,-3.958 -1.013,4.765 0.946,10.035 4.826,12.98 -3.953,-2.002 -9.362,-0.281 -11.432,3.637 2.432,0.369 4.772,1.337 6.754,2.794 -3.059,0.088 -5.864,2.624 -6.258,5.659 1.413,-0.89 3.264,-1.042 4.803,-0.395 -4.609,3.796 -5.649,11.239 -2.255,16.152 -0.255,-2.556 1.879,-5.105 4.441,-5.304 -2.439,7.977 2.21,16.223 6.673,23.27 6.13,9.681 12.261,19.362 18.392,29.043 9.42,-12.356 12.882,-29.054 9.15,-44.137"
             style="fill:none;stroke:#403253;stroke-width:1.5;stroke-linecap:round;stroke-linejoin:round;stroke-miterlimit:10;stroke-dasharray:none;stroke-opacity:1"
             id="path248" />
        </g>
        <g
           id="g250"
           transform="translate(284.4264,189.4535)">
          <path
             d="m 0,0 c -0.675,-0.96 -3.551,-1.902 -4.643,-2.333 -1.899,-0.751 -3.9,-1.328 -5.943,-1.332 -2.042,-0.004 -4.14,0.614 -5.64,1.999"
             style="fill:none;stroke:#403253;stroke-width:1.5;stroke-linecap:round;stroke-linejoin:round;stroke-miterlimit:10;stroke-dasharray:none;stroke-opacity:1"
             id="path252" />
        </g>
        <g
           id="g254"
           transform="translate(337.287,277.1633)">
          <path
             d="m 0,0 c -1.905,3.055 -3.881,6.188 -6.791,8.308 -4.565,3.328 -11.192,3.514 -15.937,0.45 0.96,-4.541 4.226,-8.73 8.55,-10.414 C -9.854,-3.34 -3.778,-2.694 0,0 Z"
             style="fill:none;stroke:#403253;stroke-width:1.5;stroke-linecap:round;stroke-linejoin:round;stroke-miterlimit:10;stroke-dasharray:none;stroke-opacity:1"
             id="path256" />
        </g>
        <g
           id="g258"
           transform="translate(328.6947,283.6759)">
          <path
             d="M 0,0 C 1.986,3.085 -1.387,3.49 -1.915,2.98 -3.383,1.563 -1.503,-2.335 0,0"
             style="fill:#403253;fill-opacity:1;fill-rule:nonzero;stroke:none"
             id="path260" />
        </g>
      </g>
    </g>
    <text
       xml:space="preserve"
       transform="matrix(0.75000002,0,0,-0.75000002,0,500.00002)"
       id="text681"
       style="fill:#000000;white-space:pre;shape-inside:url(#rect683)" />
  </g>
</svg>
